# xmcd CD database file
#
# Track frame offsets:
#	150
#	11853
#	25502
#	41761
#	56527
#	70120
#	86074
#	104361
#	120143
#	133367
#	151240
#	167180
#	183129
#	227302
#
# Disc length: 4543 seconds
#
# Revision: 1
# Processed by: cddbd v1.5PL3 Copyright (c) Steve Scherf et al.
# Submitted via: CDex 1.50
#
DISCID=a911bd0e
DTITLE=St. Thomas - Let's Grow Together - The Comback of St. Thomas
DYEAR=2004
DGENRE=Country
TTITLE0=Sunny Day
TTITLE1=Your May Find a Treasure Everywhere
TTITLE2=Paris, Texas
TTITLE3=Like You Know
TTITLE4=Come My Way
TTITLE5=Silence Break Your Heart
TTITLE6=Dance to the Disco
TTITLE7=Cool Yellow Flower Shirt
TTITLE8=Waltzing Around Insane
TTITLE9=An Artist With a Brilliant Disguise
TTITLE10=Daily Song
TTITLE11=Let's Grow Together
TTITLE12=The Red Book
TTITLE13=Data Track
EXTD=YEAR: 2004
EXTT0=
EXTT1=
EXTT2=
EXTT3=
EXTT4=
EXTT5=
EXTT6=
EXTT7=
EXTT8=
EXTT9=
EXTT10=
EXTT11=
EXTT12=
EXTT13=
PLAYORDER=
